<svg width="1200" height="900" viewBox="0 0 1200 900" fill="none" xmlns="http://www.w3.org/2000/svg">
  <defs>
    <linearGradient id="bg" x1="600" y1="60" x2="600" y2="860" gradientUnits="userSpaceOnUse">
      <stop stop-color="#29170F"/>
      <stop offset="1" stop-color="#090605"/>
    </linearGradient>
    <radialGradient id="warm" cx="0" cy="0" r="1" gradientUnits="userSpaceOnUse" gradientTransform="translate(600 320) rotate(90) scale(320 360)">
      <stop stop-color="#FFD49A" stop-opacity="0.28"/>
      <stop offset="1" stop-color="#FFD49A" stop-opacity="0"/>
    </radialGradient>
    <linearGradient id="petal" x1="600" y1="140" x2="600" y2="690" gradientUnits="userSpaceOnUse">
      <stop stop-color="#FAD99C" stop-opacity="0.5"/>
      <stop offset="1" stop-color="#C45A2C" stop-opacity="0.18"/>
    </linearGradient>
    <linearGradient id="leaf" x1="420" y1="560" x2="760" y2="760" gradientUnits="userSpaceOnUse">
      <stop stop-color="#89C776" stop-opacity="0.34"/>
      <stop offset="1" stop-color="#315C30" stop-opacity="0.1"/>
    </linearGradient>
    <filter id="soft" x="-20%" y="-20%" width="140%" height="140%">
      <feGaussianBlur stdDeviation="20"/>
    </filter>
  </defs>

  <rect width="1200" height="900" fill="url(#bg)"/>
  <rect width="1200" height="900" fill="url(#warm)"/>

  <circle cx="600" cy="428" r="72" fill="#FFF3D7" fill-opacity="0.18"/>

  <path d="M600 170C548 218 526 286 542 360C560 302 584 258 600 234C616 258 640 302 658 360C674 286 652 218 600 170Z" fill="url(#petal)" filter="url(#soft)"/>
  <path d="M400 242C402 318 440 372 510 402C466 352 448 306 450 270C452 242 462 214 478 188C440 194 412 212 400 242Z" fill="url(#petal)" filter="url(#soft)"/>
  <path d="M800 242C798 318 760 372 690 402C734 352 752 306 750 270C748 242 738 214 722 188C760 194 788 212 800 242Z" fill="url(#petal)" filter="url(#soft)"/>
  <path d="M294 372C336 430 394 456 470 450C416 430 380 404 356 374C338 350 326 324 320 292C292 318 282 346 294 372Z" fill="url(#petal)" filter="url(#soft)"/>
  <path d="M906 372C864 430 806 456 730 450C784 430 820 404 844 374C862 350 874 324 880 292C908 318 918 346 906 372Z" fill="url(#petal)" filter="url(#soft)"/>
  <path d="M420 630C476 642 530 626 570 578C522 598 478 602 444 594C414 588 390 574 370 552C372 594 390 622 420 630Z" fill="url(#petal)" filter="url(#soft)"/>
  <path d="M780 630C724 642 670 626 630 578C678 598 722 602 756 594C786 588 810 574 830 552C828 594 810 622 780 630Z" fill="url(#petal)" filter="url(#soft)"/>
  <path d="M600 708C650 662 670 604 658 530C640 586 618 628 600 652C582 628 560 586 542 530C530 604 550 662 600 708Z" fill="url(#petal)" filter="url(#soft)"/>

  <path d="M550 520C522 626 516 734 532 840C542 870 658 870 668 840C684 734 678 626 650 520H550Z" fill="#473318" fill-opacity="0.22"/>
  <path d="M520 650C438 632 368 642 304 694C384 686 450 692 502 724C524 698 534 672 520 650Z" fill="url(#leaf)" filter="url(#soft)"/>
  <path d="M680 650C762 632 832 642 896 694C816 686 750 692 698 724C676 698 666 672 680 650Z" fill="url(#leaf)" filter="url(#soft)"/>

  <circle cx="222" cy="252" r="20" fill="#FFE7B0" fill-opacity="0.18"/>
  <circle cx="978" cy="252" r="20" fill="#FFE7B0" fill-opacity="0.18"/>
  <circle cx="320" cy="166" r="18" fill="#FFE7B0" fill-opacity="0.16"/>
  <circle cx="880" cy="166" r="18" fill="#FFE7B0" fill-opacity="0.16"/>

  <circle cx="600" cy="430" r="228" stroke="#FFE3AE" stroke-opacity="0.08" stroke-width="2" stroke-dasharray="10 14"/>
</svg>
